<?xml version="1.0" encoding="UTF-8"?>
<svg id="Reboot" xmlns="http://www.w3.org/2000/svg" viewBox="0 0 256 256">
  <defs>
    <style>
      .cls-1 {
        fill: #f7941d;
        stroke: #e6e7e8;
        stroke-miterlimit: 10;
        stroke-width: 6px;
      }

      .cls-2 {
        fill: #d1d3d4;
      }
    </style>
  </defs>
  <rect class="cls-1" x="12" y="12" width="232" height="232" rx="15.21" ry="15.21"/>
  <path class="cls-2" d="M209.03,133.9c0,45.57-37.61,82.34-83.48,80.99-42.06-1.25-76.65-35.29-78.51-77.32-1.38-31.41,15.11-59.09,40.17-73.72,4.86-2.84,10.97.79,10.97,6.42v9.76c0,2.43-1.2,4.68-3.2,6.06-15.16,10.46-25.08,27.97-25.08,47.81,0,33.32,28.06,60.09,61.86,57.97,29.69-1.87,53.49-26.58,54.31-56.32.4-14.25-4.34-27.38-12.49-37.68l-15.67,15.68c-1.71,1.71-4.64.93-5.26-1.41l-17.98-67.11c-.63-2.34,1.51-4.48,3.85-3.85l67.1,17.98c2.34.63,3.13,3.55,1.41,5.26l-17.15,17.16c11.95,14.12,19.15,32.38,19.15,52.32Z"/>
</svg>