<?xml version="1.0" encoding="UTF-8"?>
<svg id="Hibernate" xmlns="http://www.w3.org/2000/svg" viewBox="0 0 256 256">
  <defs>
    <style>
      .cls-1 {
        fill: #58595b;
        stroke: #e6e7e8;
        stroke-miterlimit: 10;
        stroke-width: 6px;
      }

      .cls-2 {
        fill: #d1d3d4;
      }
    </style>
  </defs>
  <rect class="cls-1" x="12" y="12" width="232" height="232" rx="15.21" ry="15.21"/>
  <path class="cls-2" d="M135.69,22.09l-63.25,90.43h39.47c6.06,0,10.71-1.32,13.95-3.98,3.24-2.65,6.12-8.02,8.62-16.11l2.34.43-4.54,25.48H53.92v-2.63L115.68,27.84h-39.89c-5.11,0-8.82.56-11.11,1.67-2.3,1.11-4.05,2.72-5.25,4.83-1.21,2.11-2.31,6.05-3.3,11.82h-2.7l1.99-24.06h80.28Z"/>
  <path class="cls-2" d="M137.28,158.96l-31.84,45.52h19.87c3.05,0,5.39-.67,7.02-2,1.63-1.33,3.08-4.04,4.34-8.11l1.18.21-2.29,12.83h-39.45v-1.32l31.09-44.24h-20.08c-2.57,0-4.44.28-5.59.84-1.16.56-2.04,1.37-2.64,2.43-.61,1.06-1.16,3.04-1.66,5.95h-1.36l1-12.11h40.41Z"/>
  <path class="cls-2" d="M198,69.72l-48.49,69.34h30.26c4.64,0,8.21-1.02,10.69-3.05,2.48-2.03,4.69-6.15,6.61-12.35l1.8.33-3.48,19.54h-60.09v-2.01l47.35-67.38h-30.59c-3.92,0-6.76.43-8.52,1.28-1.76.85-3.1,2.09-4.03,3.7-.93,1.62-1.77,4.64-2.53,9.06h-2.07l1.52-18.45h61.56Z"/>
</svg>