<?xml version="1.0" encoding="UTF-8"?>
<svg id="Power_x5F_Off" xmlns="http://www.w3.org/2000/svg" viewBox="0 0 256 256">
  <defs>
    <style>
      .cls-1 {
        fill: #be1e2d;
        stroke: #e6e7e8;
        stroke-miterlimit: 10;
        stroke-width: 6px;
      }

      .cls-2 {
        fill: #d1d3d4;
      }
    </style>
  </defs>
  <rect class="cls-1" x="12" y="12" width="232" height="232" rx="15.21" ry="15.21"/>
  <rect class="cls-2" x="118.31" y="48" width="19.38" height="96" rx="4.07" ry="4.07"/>
  <path class="cls-2" d="M209.03,133.1c0,45.57-37.61,82.35-83.48,80.99-42.05-1.24-76.65-35.28-78.5-77.31-1.39-31.41,15.11-59.09,40.17-73.72,4.86-2.84,10.98.79,10.98,6.42v9.77c0,2.42-1.2,4.68-3.2,6.06-15.16,10.46-25.09,27.97-25.09,47.81,0,33.32,28.06,60.09,61.87,57.97,29.69-1.87,53.48-26.58,54.31-56.32.57-20.53-9.5-38.74-25.1-49.49-1.98-1.37-3.16-3.62-3.16-6.03v-9.77c0-5.74,6.23-9.21,11.18-6.3,23.96,14.08,40.04,40.13,40.04,69.94Z"/>
</svg>